<?xml version="1.0" encoding="utf-8"?>
<!-- Generated by IcoMoon.io -->
<!DOCTYPE svg PUBLIC "-//W3C//DTD SVG 1.1//EN" "http://www.w3.org/Graphics/SVG/1.1/DTD/svg11.dtd">
<svg version="1.1" xmlns="http://www.w3.org/2000/svg" xmlns:xlink="http://www.w3.org/1999/xlink" width="48" height="48" viewBox="0 0 48 48">
	<path d="M31.632 27.144c-1.723 0-3.12 1.934-3.12 4.318 0 2.386 1.397 4.32 3.12 4.32s3.12-1.934 3.12-4.32c-0.002-2.386-1.399-4.318-3.12-4.318zM42.494 15.902c0.355-0.876 0.372-5.856-1.522-10.622 0 0-4.349 0.475-10.925 4.99-1.38-0.382-3.715-0.571-6.048-0.571-2.335 0-4.668 0.192-6.050 0.571-6.574-4.514-10.92-4.99-10.92-4.99-1.894 4.766-1.879 9.746-1.522 10.622-2.227 2.419-3.588 5.323-3.588 9.29 0 17.246 14.309 17.522 17.921 17.522 0.818 0 2.446 0.002 4.162 0.005 1.716-0.002 3.343-0.005 4.157-0.005 3.614 0 17.921-0.276 17.921-17.522 0-3.967-1.358-6.871-3.586-9.29zM24.067 40.596h-0.132c-9.053 0-16.104-1.080-16.104-9.878 0-2.107 0.746-4.063 2.51-5.686 2.95-2.705 7.934-1.272 13.594-1.272 0.022 0 0.046 0 0.067-0.002 0.024 0 0.046 0.002 0.065 0.002 5.659 0 10.646-1.433 13.594 1.272 1.764 1.622 2.508 3.578 2.508 5.686 0 8.798-7.046 9.878-16.102 9.878zM16.37 27.144c-1.723 0-3.12 1.934-3.12 4.318 0 2.386 1.397 4.32 3.12 4.32s3.12-1.934 3.12-4.32c0-2.386-1.397-4.318-3.12-4.318z" fill="#3399cc" />
</svg>
