<?xml version="1.0" encoding="utf-8"?>
<!-- Generated by IcoMoon.io -->
<!DOCTYPE svg PUBLIC "-//W3C//DTD SVG 1.1//EN" "http://www.w3.org/Graphics/SVG/1.1/DTD/svg11.dtd">
<svg version="1.1" xmlns="http://www.w3.org/2000/svg" xmlns:xlink="http://www.w3.org/1999/xlink" width="48" height="48" viewBox="0 0 48 48">
	<path d="M12.182 7.32c0 2.551-1.884 4.618-4.982 4.618-2.916 0-4.8-2.066-4.8-4.618 0-2.611 1.946-4.618 4.922-4.618s4.8 2.006 4.86 4.618zM2.645 45.298v-29.712h9.235v29.712h-9.235zM17.407 25.063c0-3.706-0.122-6.804-0.245-9.478h8.021l0.427 4.133h0.182c1.214-1.946 4.193-4.8 9.175-4.8 6.074 0 10.632 4.070 10.632 12.821v17.561h-9.235v-16.466c0-3.828-1.339-6.442-4.68-6.442-2.551 0-4.068 1.762-4.738 3.463-0.245 0.607-0.305 1.457-0.305 2.309v17.136h-9.235v-20.237z" fill="#3399cc" />
</svg>
