<?xml version="1.0" encoding="utf-8"?>
<!-- Generated by IcoMoon.io -->
<!DOCTYPE svg PUBLIC "-//W3C//DTD SVG 1.1//EN" "http://www.w3.org/Graphics/SVG/1.1/DTD/svg11.dtd">
<svg version="1.1" xmlns="http://www.w3.org/2000/svg" xmlns:xlink="http://www.w3.org/1999/xlink" width="48" height="48" viewBox="0 0 48 48">
	<path d="M3.826 12.686c1.171 0.631 17.398 9.346 18.002 9.67 0.602 0.324 1.385 0.48 2.172 0.48 0.79 0 1.572-0.156 2.174-0.482 0.605-0.324 16.829-9.038 18-9.67 1.174-0.629 2.282-2.604 0.13-2.604h-40.606c-2.153 0-1.046 1.975 0.127 2.606zM44.671 17.486c-1.332 0.696-17.681 9.242-18.497 9.67s-1.385 0.482-2.174 0.482c-0.787 0-1.356-0.055-2.172-0.482s-17.167-8.976-18.497-9.67c-0.938-0.49-0.931 0.084-0.931 0.526 0 0.442 0 17.604 0 17.604 0 1.008 1.342 2.304 2.381 2.304h38.441c1.042 0 2.378-1.296 2.378-2.302 0 0 0-17.162 0-17.604 0-0.444 0.010-1.018-0.929-0.528z" fill="#3399cc" />
</svg>
