<?xml version="1.0" encoding="utf-8"?>
<!-- Generated by IcoMoon.io -->
<!DOCTYPE svg PUBLIC "-//W3C//DTD SVG 1.1//EN" "http://www.w3.org/Graphics/SVG/1.1/DTD/svg11.dtd">
<svg version="1.1" xmlns="http://www.w3.org/2000/svg" xmlns:xlink="http://www.w3.org/1999/xlink" width="48" height="48" viewBox="0 0 48 48">
	<path d="M46.080 10.303c-1.627 0.722-3.372 1.207-5.206 1.428 1.872-1.121 3.31-2.897 3.984-5.011-1.75 1.037-3.689 1.793-5.75 2.198-1.654-1.762-4.008-2.861-6.614-2.861-5.004 0-9.060 4.056-9.060 9.058 0 0.71 0.079 1.402 0.235 2.064-7.529-0.377-14.206-3.984-18.672-9.466-0.782 1.337-1.231 2.894-1.231 4.555 0 3.144 1.601 5.916 4.032 7.541-1.486-0.048-2.882-0.454-4.104-1.133 0 0.038 0 0.074 0 0.113 0 4.39 3.125 8.050 7.267 8.885-0.758 0.206-1.56 0.317-2.388 0.317-0.583 0-1.15-0.055-1.704-0.161 1.152 3.6 4.5 6.218 8.462 6.29-3.101 2.431-7.006 3.878-11.251 3.878-0.732 0-1.452-0.043-2.16-0.127 4.008 2.57 8.77 4.070 13.889 4.070 16.663 0 25.776-13.805 25.776-25.778 0-0.391-0.007-0.782-0.026-1.171 1.771-1.277 3.305-2.873 4.522-4.69z" fill="#3399cc" />
</svg>
